<?xml version="1.0" encoding="utf-8"?>
<!-- Generator: Adobe Illustrator 19.2.0, SVG Export Plug-In . SVG Version: 6.00 Build 0)  -->
<svg version="1.1" xmlns="http://www.w3.org/2000/svg" xmlns:xlink="http://www.w3.org/1999/xlink" x="0px" y="0px"
	 viewBox="0 0 595.3 841.9" style="enable-background:new 0 0 595.3 841.9;" xml:space="preserve">
<style type="text/css">
	.st0{font-family:'HelveticaNeue-Light';}
	.st1{font-size:24px;}
	.st2{font-family:'HelveticaNeue-Medium';}
	.st3{font-size:16px;}
	.st4{fill:none;stroke:#000000;stroke-miterlimit:10;}
	.st5{display:none;}
</style>
<g id="Layer_3">
	<text transform="matrix(1 0 0 1 8.4596 162.0576)"><tspan x="0" y="0" class="st0 st1">“</tspan><tspan x="8.9" y="0" class="st2 st1">.</tspan><tspan x="15.6" y="0" class="st0 st1">”</tspan></text>
	<text transform="matrix(1 0 0 1 8.4597 287.3448)"><tspan x="0" y="0" class="st0 st1">“</tspan><tspan x="8.9" y="0" class="st2 st1">.</tspan><tspan x="15.6" y="0" class="st0 st1">”</tspan></text>
	<text transform="matrix(1 0 0 1 8.4597 413.7816)"><tspan x="0" y="0" class="st0 st1">“</tspan><tspan x="8.9" y="0" class="st2 st1">.</tspan><tspan x="15.6" y="0" class="st0 st1">”</tspan></text>
	<text transform="matrix(1 0 0 1 8.4598 539.0688)"><tspan x="0" y="0" class="st0 st1">“</tspan><tspan x="8.9" y="0" class="st2 st1">.</tspan><tspan x="15.6" y="0" class="st0 st1">”</tspan></text>
	<text transform="matrix(1 0 0 1 8.4596 665.5061)"><tspan x="0" y="0" class="st0 st1">“</tspan><tspan x="8.9" y="0" class="st2 st1">.</tspan><tspan x="15.6" y="0" class="st0 st1">”</tspan></text>
	<text transform="matrix(1 0 0 1 561.4681 162.0576)"><tspan x="0" y="0" class="st0 st1">“</tspan><tspan x="8.9" y="0" class="st2 st1">.</tspan><tspan x="15.6" y="0" class="st0 st1">”</tspan></text>
	<text transform="matrix(1 0 0 1 561.4683 287.3448)"><tspan x="0" y="0" class="st0 st1">“</tspan><tspan x="8.9" y="0" class="st2 st1">.</tspan><tspan x="15.6" y="0" class="st0 st1">”</tspan></text>
	<text transform="matrix(1 0 0 1 561.4683 413.7816)"><tspan x="0" y="0" class="st0 st1">“</tspan><tspan x="8.9" y="0" class="st2 st1">.</tspan><tspan x="15.6" y="0" class="st0 st1">”</tspan></text>
	<text transform="matrix(1 0 0 1 561.4684 539.0688)"><tspan x="0" y="0" class="st0 st1">“</tspan><tspan x="8.9" y="0" class="st2 st1">.</tspan><tspan x="15.6" y="0" class="st0 st1">”</tspan></text>
	<text transform="matrix(1 0 0 1 561.4681 665.5061)"><tspan x="0" y="0" class="st0 st1">“</tspan><tspan x="8.9" y="0" class="st2 st1">.</tspan><tspan x="15.6" y="0" class="st0 st1">”</tspan></text>
</g>
<g id="Layer_4">
	<text transform="matrix(1 0 0 1 47.6646 291.3448)"><tspan x="0" y="0" class="st0 st3">think of an important person in your life.</tspan><tspan x="0" y="25" class="st0 st3">concentrate on their name.</tspan><tspan x="0" y="50" class="st2 st3">use</tspan><tspan x="26.9" y="50" class="st0 st3"> the </tspan><tspan x="58.2" y="50" class="st2 st3">letters</tspan><tspan x="105.6" y="50" class="st0 st3"> of their </tspan><tspan x="163.2" y="50" class="st2 st3">name</tspan><tspan x="204.7" y="50" class="st0 st3"> to communicate.</tspan><tspan x="0" y="75" class="st0 st3">don’t worry about anything else during this time.</tspan><tspan x="0" y="100" class="st0 st3">this is a moment between you and them.</tspan></text>
	<line class="st4" x1="35.7" y1="150.3" x2="35.7" y2="678.1"/>
	<line class="st4" x1="558.7" y1="150.3" x2="558.7" y2="678.1"/>
	<text transform="matrix(1 0 0 1 434.2887 451.0397)"><tspan x="0" y="0" class="st0 st3">moving forward,</tspan><tspan x="-119.1" y="25" class="st0 st3">keep the memory of this moment</tspan><tspan x="-254.4" y="50" class="st0 st3">and slip in a letter from their name from time to time.</tspan></text>
</g>
<g id="rulers" class="st5">
</g>
</svg>
